<?xml version="1.0" encoding="utf-8"?>
<!-- Generator: Adobe Illustrator 20.1.0, SVG Export Plug-In . SVG Version: 6.00 Build 0)  -->
<svg version="1.1" id="Lager_1" xmlns="http://www.w3.org/2000/svg" xmlns:xlink="http://www.w3.org/1999/xlink" x="0px" y="0px"
	 viewBox="0 0 841.9 595.3" style="enable-background:new 0 0 841.9 595.3;" xml:space="preserve">
<style type="text/css">
	.st0{fill:#2A4B9B;stroke:#FFFFFF;stroke-width:4;stroke-linejoin:round;stroke-miterlimit:10;}
	.st1{fill:#FFFFFF;}
	.st2{fill:#FFED00;stroke:#FFFFFF;stroke-width:4;stroke-linejoin:round;stroke-miterlimit:10;}
	.st3{fill:none;stroke:#000000;stroke-width:4;stroke-linejoin:round;stroke-miterlimit:10;}
	.st4{stroke:#000000;stroke-width:2;stroke-linejoin:round;stroke-miterlimit:10;}
	.st5{fill:none;stroke:#000000;stroke-width:0.75;stroke-linecap:round;stroke-linejoin:round;stroke-miterlimit:10;}
	.st6{fill:none;stroke:#FFFFFF;stroke-width:2;stroke-linecap:round;stroke-miterlimit:10;}
</style>
<rect x="80.7" y="289" class="st0" width="678.7" height="253.3"/>
<g>
	<path d="M340.2,209c0,4.3-1.4,7.8-4.2,10.6c-2.8,2.8-6.4,4.1-10.7,4.1h-18.6v-81.3h18.6c4.3,0,7.9,1.4,10.7,4.1
		c2.8,2.8,4.2,6.3,4.2,10.6V209z M332.9,208.2v-50.5c0-2.7-0.8-4.8-2.5-6.5c-1.7-1.6-3.9-2.5-6.5-2.5h-10v68.5h9.6
		c2.8,0,5.1-0.8,6.8-2.4C332.1,213.3,332.9,211,332.9,208.2z"/>
	<path d="M359.3,162.1h-7v-8.7h7V162.1z M359.2,223.7h-6.8v-50.5h6.8V223.7z"/>
	<path d="M389.2,223.7h-9.8c-3.9,0-5.8-2-5.8-5.9v-38.6h-6.1v-6.1h6.1v-15.7h6.8v15.7h8.8v6.1h-8.8v38.4h8.8V223.7z"/>
	<path d="M416.2,223.7h-9.8c-3.9,0-5.8-2-5.8-5.9v-38.6h-6.1v-6.1h6.1v-15.7h6.8v15.7h8.8v6.1h-8.8v38.4h8.8V223.7z"/>
	<path d="M474.9,223.7H468v-44.4l-15.2,0.4v43.9h-6.9v-50.5h6.9v1.4c2.7-0.3,5.4-0.7,8.2-1.1c3.3-0.4,6.1-0.6,8.2-0.6
		c3.8,0,5.8,1.9,5.8,5.7V223.7z"/>
	<path d="M514.5,173.1l-12.2,50.1l-5,19.6h-6.8l5.1-19.6l-12.5-50.1h7.1l8.6,39.8l8.7-39.8H514.5z"/>
	<path d="M551.5,223.7h-6.8v-1.4c-2.7,0.4-5.5,0.7-8.2,1.1c-3.4,0.4-6.1,0.6-8.2,0.6c-3.8,0-5.7-1.9-5.7-5.6v-18.4
		c0-3.9,2-5.8,5.9-5.8h16.3v-15.2H530v8.6h-6.7V179c0-3.9,1.9-5.9,5.8-5.9h16.6c3.9,0,5.8,2,5.8,5.9V223.7z M544.8,217.4v-17.9
		h-15.4v18.2L544.8,217.4z"/>
	<path d="M612.7,223.7h-6.9v-44.4l-15.2,0.4v43.9h-6.9v-81.3h6.9v32.2c2.7-0.3,5.5-0.7,8.2-1c3.5-0.4,6.2-0.7,8.2-0.7
		c3.8,0,5.8,1.9,5.8,5.7V223.7z"/>
	<path d="M652.1,217.8c0,3.9-1.9,5.9-5.8,5.9h-16.6c-3.9,0-5.8-2-5.8-5.9V179c0-3.9,1.9-5.9,5.8-5.9h16.6c3.9,0,5.8,2,5.8,5.9v18.2
		l-2.3,2.4h-19.2v18.3h14.9v-9.2h6.7V217.8z M645.4,194.1v-15.2h-14.9v15.2H645.4z"/>
	<path d="M714.4,223.7h-6.9v-44.4l-15.1,0.4v43.9h-6.9v-44.4l-15.1,0.4v43.9h-6.9v-50.5h6.9v1.4c2.7-0.3,5.4-0.7,8.1-1.1
		c3.3-0.4,6-0.6,8.2-0.6c2.1,0,3.7,0.6,4.7,1.9c2.9-0.4,5.8-0.8,8.7-1.2c3.8-0.5,6.6-0.7,8.6-0.7c3.8,0,5.7,1.9,5.7,5.7V223.7z"/>
</g>
<g>
	<g>
		<path class="st1" d="M354.3,484.6c0,4.1-1.4,7.5-4,10.1c-2.7,2.6-6.1,3.9-10.2,3.9h-17.8v-77.7H340c4.1,0,7.6,1.3,10.2,3.9
			c2.7,2.6,4,6,4,10.1V484.6z M347.4,483.9v-48.3c0-2.5-0.8-4.6-2.4-6.2c-1.6-1.6-3.7-2.4-6.2-2.4h-9.6v65.5h9.2
			c2.7,0,4.9-0.8,6.5-2.3C346.5,488.7,347.4,486.6,347.4,483.9z"/>
		<path class="st1" d="M372.6,439.8h-6.7v-8.3h6.7V439.8z M372.5,498.7H366v-48.3h6.5V498.7z"/>
		<path class="st1" d="M401.1,498.7h-9.4c-3.7,0-5.6-1.9-5.6-5.6v-36.9h-5.8v-5.8h5.8v-15.1h6.5v15.1h8.4v5.8h-8.4v36.7h8.4V498.7z"
			/>
		<path class="st1" d="M426.9,498.7h-9.4c-3.7,0-5.6-1.9-5.6-5.6v-36.9h-5.8v-5.8h5.8v-15.1h6.5v15.1h8.4v5.8h-8.4v36.7h8.4V498.7z"
			/>
		<path class="st1" d="M483.1,498.7h-6.6v-42.4l-14.6,0.4v42h-6.6v-48.3h6.6v1.3c2.6-0.3,5.2-0.7,7.8-1c3.2-0.4,5.8-0.6,7.8-0.6
			c3.7,0,5.5,1.8,5.5,5.4V498.7z"/>
		<path class="st1" d="M521,450.3l-11.6,47.9l-4.8,18.7H498l4.9-18.7L491,450.3h6.8l8.2,38.1l8.3-38.1H521z"/>
		<path class="st1" d="M556.4,498.7h-6.5v-1.3c-2.6,0.4-5.2,0.7-7.8,1c-3.2,0.4-5.8,0.6-7.8,0.6c-3.6,0-5.4-1.8-5.4-5.4V476
			c0-3.7,1.9-5.6,5.6-5.6H550v-14.6h-14.2v8.2h-6.4v-8.1c0-3.7,1.9-5.6,5.6-5.6h15.9c3.7,0,5.6,1.9,5.6,5.6V498.7z M550,492.7v-17.1
			h-14.8V493L550,492.7z"/>
		<path class="st1" d="M614.9,498.7h-6.6v-42.4l-14.6,0.4v42h-6.6v-77.7h6.6v30.7c2.6-0.3,5.2-0.7,7.8-1c3.3-0.4,5.9-0.6,7.8-0.6
			c3.7,0,5.5,1.8,5.5,5.4V498.7z"/>
		<path class="st1" d="M652.6,493.1c0,3.7-1.9,5.6-5.6,5.6h-15.9c-3.7,0-5.6-1.9-5.6-5.6v-37.1c0-3.7,1.9-5.6,5.6-5.6H647
			c3.7,0,5.6,1.9,5.6,5.6v17.4l-2.2,2.3H632v17.5h14.2v-8.8h6.4V493.1z M646.2,470.4v-14.6H632v14.6H646.2z"/>
		<path class="st1" d="M712.1,498.7h-6.6v-42.4l-14.4,0.4v42h-6.6v-42.4l-14.4,0.4v42h-6.6v-48.3h6.6v1.3c2.6-0.3,5.2-0.7,7.7-1
			c3.1-0.4,5.7-0.6,7.8-0.6c2,0,3.5,0.6,4.5,1.8c2.8-0.4,5.5-0.7,8.3-1.1c3.6-0.5,6.3-0.7,8.2-0.7c3.6,0,5.5,1.8,5.5,5.4V498.7z"/>
	</g>
</g>
<path class="st2" d="M192.6,351.4L138,406v92.7h65h65V406l0.3,0.3l-54.3-54.9C208.1,345.5,198.5,345.5,192.6,351.4z"/>
<path class="st0" d="M203,318.3L117.3,404l11.3,11.3l9.3-9.3l54.6-54.6c5.9-5.9,15.5-5.9,21.4,0l54.3,54.9l9,9l11.3-11.3L203,318.3z
	"/>
<g>
	<polygon class="st3" points="191.5,43.3 105.8,129 117.2,140.3 126.5,131 126.5,223.7 191.5,223.7 256.5,223.7 256.5,131 
		265.8,140.3 277.2,129 	"/>
	<path class="st3" d="M164.1,128.7L164.1,128.7c-12.8,0-23.2,10.4-23.2,23.2v71.8h46.3v-71.8C187.3,139,176.9,128.7,164.1,128.7z"/>
	<circle class="st3" cx="164.1" cy="153" r="14"/>
	<path class="st3" d="M236.3,176.2h-31.2c-3.1,0-5.7-2.5-5.7-5.7v-31.2c0-3.1,2.5-5.7,5.7-5.7h31.2c3.1,0,5.7,2.5,5.7,5.7v31.2
		C242,173.7,239.5,176.2,236.3,176.2z"/>
	<path class="st3" d="M126.2,131.3l54.9-54.9c5.9-5.9,15.5-5.9,21.4,0l54.3,54.9"/>
	<circle class="st3" cx="191.5" cy="101.5" r="15"/>
	<polygon class="st4" points="216,167 211.2,167 213.6,176.2 216,176.2 218.4,176.2 220.7,167 	"/>
	<path class="st5" d="M216,169c0,0-1.8-8.2,0-10.1"/>
	<g>
		<g>
			<path d="M215.4,159.1l-1.9-2.8c-0.4-0.6-0.3-1.5,0.3-1.9c0.6-0.4,1.5-0.3,1.9,0.3c0.1,0.2,0.2,0.4,0.2,0.6l0.3,3.4
				c0,0.3-0.2,0.5-0.4,0.5C215.7,159.4,215.5,159.3,215.4,159.1z"/>
		</g>
		<g>
			<path d="M216.3,158.8l1.9,2.8c0.4,0.6,0.3,1.5-0.3,1.9c-0.6,0.4-1.5,0.3-1.9-0.3c-0.1-0.2-0.2-0.4-0.2-0.6l-0.3-3.4
				c0-0.3,0.2-0.5,0.4-0.5C216.1,158.6,216.2,158.7,216.3,158.8z"/>
		</g>
		<g>
			<path d="M215.8,159.4l-3.4,0.3c-0.8,0.1-1.4-0.5-1.5-1.3s0.5-1.4,1.3-1.5c0.2,0,0.5,0,0.7,0.1l3.1,1.4c0.2,0.1,0.4,0.4,0.2,0.7
				C216.1,159.3,216,159.4,215.8,159.4z"/>
		</g>
		<g>
			<path d="M216,158.5l3.4-0.3c0.8-0.1,1.4,0.5,1.5,1.3s-0.5,1.4-1.3,1.5c-0.2,0-0.5,0-0.7-0.1l-3.1-1.4c-0.2-0.1-0.4-0.4-0.2-0.7
				C215.6,158.6,215.8,158.5,216,158.5z"/>
		</g>
		<g>
			<path d="M216.2,159.3l-1.4,3.1c-0.3,0.7-1.1,1-1.8,0.7c-0.7-0.3-1-1.1-0.7-1.8c0.1-0.2,0.3-0.4,0.4-0.5l2.8-2
				c0.2-0.2,0.5-0.1,0.7,0.1C216.3,158.9,216.3,159.1,216.2,159.3z"/>
		</g>
		<g>
			<path d="M215.5,158.7l1.4-3.1c0.3-0.7,1.1-1,1.8-0.7c0.7,0.3,1,1.1,0.7,1.8c-0.1,0.2-0.3,0.4-0.4,0.5l-2.8,2
				c-0.2,0.2-0.5,0.1-0.7-0.1C215.4,159,215.4,158.8,215.5,158.7z"/>
		</g>
	</g>
</g>
<polygon class="st1" points="203,498.7 203,420.3 163.8,420.3 194.7,425.7 194.7,498.7 "/>
<line class="st6" x1="192" y1="460.9" x2="186.8" y2="461"/>
<g>
</g>
<g>
</g>
<g>
</g>
<g>
</g>
<g>
</g>
<g>
</g>
</svg>
