<?xml version="1.0" encoding="utf-8"?>
<!-- Generator: Adobe Illustrator 20.1.0, SVG Export Plug-In . SVG Version: 6.00 Build 0)  -->
<svg version="1.1" id="Lager_1" xmlns="http://www.w3.org/2000/svg" xmlns:xlink="http://www.w3.org/1999/xlink" x="0px" y="0px"
	 viewBox="0 0 221 221" style="enable-background:new 0 0 221 221;" xml:space="preserve">
<style type="text/css">
	.st0{fill:#85D0F4;}
	.st1{fill:none;stroke:#000000;stroke-width:4;stroke-linejoin:round;stroke-miterlimit:10;}
	.st2{fill:#FFFFFF;fill-opacity:0.35;stroke:#000000;stroke-width:4;stroke-linejoin:round;stroke-miterlimit:10;}
	.st3{fill:#FFFFFF;fill-opacity:0.35;}
	.st4{stroke:#000000;stroke-width:2;stroke-linejoin:round;stroke-miterlimit:10;}
	.st5{fill:none;stroke:#000000;stroke-width:0.75;stroke-linecap:round;stroke-linejoin:round;stroke-miterlimit:10;}
</style>
<g>
	<circle class="st0" cx="110.5" cy="110.5" r="110.5"/>
	<polygon class="st1" points="110.5,8.3 24.8,93.9 36.2,105.3 45.5,95.9 45.5,188.6 110.5,188.6 175.5,188.6 175.5,95.9 
		184.8,105.3 196.2,93.9 	"/>
	<path class="st1" d="M83.2,93.6L83.2,93.6C70.4,93.6,60,104,60,116.8v71.8h46.3v-71.8C106.3,104,95.9,93.6,83.2,93.6z"/>
	<circle class="st2" cx="83.2" cy="117.9" r="14"/>
	<path class="st3" d="M139.8,98.7c0,0,1.9,17.7,21.2,17.2v-11.5l-5.7-5.7H139.8z"/>
	<path class="st2" d="M155.3,141.2h-31.2c-3.1,0-5.7-2.5-5.7-5.7v-31.2c0-3.1,2.5-5.7,5.7-5.7h31.2c3.1,0,5.7,2.5,5.7,5.7v31.2
		C161,138.6,158.5,141.2,155.3,141.2z"/>
	<path class="st1" d="M45.2,96.3l54.9-54.9c5.9-5.9,15.5-5.9,21.4,0l54.3,54.9"/>
	<circle class="st2" cx="110.5" cy="66.4" r="15"/>
	<polygon class="st4" points="135,131.9 130.3,131.9 132.6,141.1 135,141.1 137.4,141.1 139.8,131.9 	"/>
	<path class="st5" d="M135,133.9c0,0-1.8-8.2,0-10.1"/>
	<g>
		<g>
			<path d="M134.4,124.1l-1.9-2.8c-0.4-0.6-0.3-1.5,0.3-1.9c0.6-0.4,1.5-0.3,1.9,0.3c0.1,0.2,0.2,0.4,0.2,0.6l0.3,3.4
				c0,0.3-0.2,0.5-0.4,0.5C134.7,124.3,134.5,124.2,134.4,124.1z"/>
		</g>
		<g>
			<path d="M135.3,123.7l1.9,2.8c0.4,0.6,0.3,1.5-0.3,1.9c-0.6,0.4-1.5,0.3-1.9-0.3c-0.1-0.2-0.2-0.4-0.2-0.6l-0.3-3.4
				c0-0.3,0.2-0.5,0.4-0.5C135.1,123.5,135.2,123.6,135.3,123.7z"/>
		</g>
		<g>
			<path d="M134.8,124.4l-3.4,0.3c-0.8,0.1-1.4-0.5-1.5-1.3s0.5-1.4,1.3-1.5c0.2,0,0.5,0,0.7,0.1l3.1,1.4c0.2,0.1,0.4,0.4,0.2,0.7
				C135.1,124.2,135,124.4,134.8,124.4z"/>
		</g>
		<g>
			<path d="M135,123.4l3.4-0.3c0.8-0.1,1.4,0.5,1.5,1.3s-0.5,1.4-1.3,1.5c-0.2,0-0.5,0-0.7-0.1l-3.1-1.4c-0.2-0.1-0.4-0.4-0.2-0.7
				C134.6,123.5,134.8,123.4,135,123.4z"/>
		</g>
		<g>
			<path d="M135.3,124.2l-1.4,3.1c-0.3,0.7-1.1,1-1.8,0.7c-0.7-0.3-1-1.1-0.7-1.8c0.1-0.2,0.3-0.4,0.4-0.5l2.8-2
				c0.2-0.2,0.5-0.1,0.7,0.1C135.3,123.9,135.3,124,135.3,124.2z"/>
		</g>
		<g>
			<path d="M134.5,123.6l1.4-3.1c0.3-0.7,1.1-1,1.8-0.7c0.7,0.3,1,1.1,0.7,1.8c-0.1,0.2-0.3,0.4-0.4,0.5l-2.8,2
				c-0.2,0.2-0.5,0.1-0.7-0.1C134.5,123.9,134.4,123.7,134.5,123.6z"/>
		</g>
	</g>
</g>
<g>
</g>
<g>
</g>
<g>
</g>
<g>
</g>
<g>
</g>
<g>
</g>
</svg>
