<?xml version="1.0" encoding="UTF-8" standalone="no"?><!DOCTYPE svg PUBLIC "-//W3C//DTD SVG 1.1//EN" "http://www.w3.org/Graphics/SVG/1.1/DTD/svg11.dtd"><svg width="100%" height="100%" viewBox="0 0 1280 460" version="1.1" xmlns="http://www.w3.org/2000/svg" xmlns:xlink="http://www.w3.org/1999/xlink" xml:space="preserve" style="fill-rule:evenodd;clip-rule:evenodd;stroke-linejoin:round;stroke-miterlimit:10;"><g><rect x="0.787" y="-9.753" width="1280" height="477.713" style="fill:#2a4b9b;"/><path d="M515.998,368.893c0,7.733 -2.64,14.145 -7.544,19.049c-5.092,4.903 -11.504,7.355 -19.236,7.355l-33.57,0l0,-146.539l33.381,0c7.732,0 14.333,2.452 19.237,7.355c5.092,4.904 7.544,11.316 7.544,19.048l0,93.732l0.188,0Zm-13.013,-1.32l0,-91.091c0,-4.715 -1.509,-8.676 -4.526,-11.693c-3.018,-3.018 -6.978,-4.527 -11.693,-4.527l-18.105,0l0,123.531l17.35,0c5.093,0 9.242,-1.509 12.259,-4.338c3.018,-2.829 4.715,-6.79 4.715,-11.882Z" style="fill:#fff;fill-rule:nonzero;"/><path d="M550.511,284.403l-12.636,0l0,-15.654l12.636,0l0,15.654Zm-0.188,111.082l-12.259,0l0,-91.091l12.259,0l0,91.091Z" style="fill:#fff;fill-rule:nonzero;"/><path d="M604.261,395.485l-17.728,0c-6.978,0 -10.561,-3.583 -10.561,-10.561l0,-69.592l-10.939,0l0,-10.938l10.939,0l0,-28.478l12.258,0l0,28.478l15.842,0l0,10.938l-15.842,0l0,69.215l15.842,0l0,10.938l0.189,0Z" style="fill:#fff;fill-rule:nonzero;"/><path d="M652.919,395.485l-17.728,0c-6.978,0 -10.562,-3.583 -10.562,-10.561l0,-69.592l-10.938,0l0,-10.938l10.938,0l0,-28.478l12.259,0l0,28.478l15.842,0l0,10.938l-15.842,0l0,69.215l15.842,0l0,10.938l0.189,0Z" style="fill:#fff;fill-rule:nonzero;"/><path d="M758.91,395.485l-12.448,0l0,-79.964l-27.535,0.754l0,79.21l-12.447,0l0,-91.091l12.447,0l0,2.451c4.904,-0.565 9.807,-1.32 14.711,-1.886c6.035,-0.754 10.938,-1.131 14.71,-1.131c6.978,0 10.373,3.395 10.373,10.184l0,81.473l0.189,0Z" style="fill:#fff;fill-rule:nonzero;"/><path d="M830.388,304.205l-21.878,90.338l-9.052,35.267l-12.448,0l9.242,-35.267l-22.443,-90.338l12.824,0l15.465,71.855l15.654,-71.855l12.636,0Z" style="fill:#fff;fill-rule:nonzero;"/><path d="M897.15,395.485l-12.258,0l0,-2.451c-4.904,0.754 -9.807,1.32 -14.711,1.886c-6.035,0.754 -10.938,1.131 -14.71,1.131c-6.79,0 -10.184,-3.394 -10.184,-10.184l0,-33.193c0,-6.978 3.583,-10.561 10.561,-10.561l29.232,0l0,-27.535l-26.78,0l0,15.465l-12.07,0l0,-15.277c0,-6.978 3.583,-10.561 10.561,-10.561l29.987,0c6.978,0 10.561,3.583 10.561,10.561l0,80.719l-0.189,0Zm-12.07,-11.315l0,-32.25l-27.912,0l0,32.816l27.912,-0.566Z" style="fill:#fff;fill-rule:nonzero;"/><path d="M1007.48,395.485l-12.447,0l0,-79.964l-27.535,0.754l0,79.21l-12.448,0l0,-146.538l12.448,0l0,57.898c4.903,-0.565 9.807,-1.32 14.71,-1.886c6.224,-0.754 11.127,-1.131 14.711,-1.131c6.978,0 10.372,3.395 10.372,10.184l0,81.473l0.189,0Z" style="fill:#fff;fill-rule:nonzero;"/><path d="M1078.58,384.924c0,6.978 -3.584,10.561 -10.562,10.561l-29.986,0c-6.979,0 -10.562,-3.583 -10.562,-10.561l0,-69.969c0,-6.978 3.583,-10.561 10.562,-10.561l29.986,0c6.978,0 10.562,3.583 10.562,10.561l0,32.816l-4.149,4.337l-34.702,0l0,33.005l26.781,0l0,-16.597l12.07,0l0,16.408Zm-12.07,-42.811l0,-27.535l-26.781,0l0,27.535l26.781,0Z" style="fill:#fff;fill-rule:nonzero;"/><path d="M1190.79,395.485l-12.447,0l0,-79.964l-27.158,0.754l0,79.21l-12.447,0l0,-79.964l-27.158,0.754l0,79.21l-12.447,0l0,-91.091l12.447,0l0,2.451c4.903,-0.565 9.807,-1.32 14.522,-1.886c5.846,-0.754 10.75,-1.131 14.71,-1.131c3.772,0 6.601,1.131 8.487,3.395c5.281,-0.755 10.373,-1.321 15.654,-2.075c6.789,-0.943 11.881,-1.32 15.464,-1.32c6.79,0 10.373,3.395 10.373,10.184l0,81.473Z" style="fill:#fff;fill-rule:nonzero;"/><path d="M211.039,117.684l-102.974,102.973l0,174.828l245.175,0l0,-174.828l0.566,0.566l-102.408,-103.539c-11.127,-11.127 -29.232,-11.127 -40.359,0Z" style="fill:#ffed00;fill-rule:nonzero;stroke:#fff;stroke-width:7.54px;"/><path d="M230.653,55.259l-161.627,161.626l21.311,21.312l17.54,-17.54l102.973,-102.973c11.127,-11.127 29.233,-11.127 40.36,0l102.407,103.539l16.974,16.974l21.311,-21.312l-161.249,-161.626Z" style="fill:#2a4b9b;fill-rule:nonzero;stroke:#fff;stroke-width:7.54px;"/><path d="M230.653,395.485l0,-147.859l-73.93,0l58.276,10.185l0,137.674l15.654,0Z" style="fill:#fff;fill-rule:nonzero;"/><path d="M209.957,322.311l0.086,0.004l0.085,0.008l0.085,0.012l0.084,0.016l0.084,0.02l0.083,0.023l0.081,0.027l0.08,0.031l0.079,0.035l0.077,0.038l0.075,0.041l0.073,0.045l0.071,0.048l0.069,0.052l0.066,0.054l0.064,0.058l0.062,0.06l0.058,0.063l0.055,0.065l0.053,0.068l0.049,0.071l0.046,0.072l0.043,0.075l0.039,0.076l0.036,0.078l0.032,0.08l0.028,0.081l0.025,0.082l0.021,0.083l0.017,0.084l0.013,0.085l0.01,0.085l0.005,0.086l0.002,0.086l-0.002,0.086l-0.006,0.085l-0.01,0.086l-0.014,0.084l-0.018,0.084l-0.022,0.084l-0.025,0.082l-0.029,0.08l-0.033,0.08l-0.036,0.078l-0.04,0.076l-0.043,0.074l-0.046,0.072l-0.05,0.07l-0.053,0.068l-0.056,0.065l-0.059,0.062l-0.061,0.06l-0.065,0.057l-0.067,0.054l-0.069,0.051l-0.071,0.048l-0.074,0.044l-0.075,0.041l-0.077,0.037l-0.079,0.034l-0.081,0.031l-0.081,0.026l-0.083,0.023l-0.084,0.019l-0.084,0.015l-0.085,0.012l-0.086,0.007l-0.086,0.004l-9.807,0.188l-0.085,0l-0.086,-0.004l-0.086,-0.008l-0.085,-0.012l-0.084,-0.016l-0.084,-0.02l-0.082,-0.023l-0.082,-0.027l-0.08,-0.031l-0.078,-0.035l-0.077,-0.038l-0.076,-0.041l-0.073,-0.045l-0.071,-0.048l-0.069,-0.052l-0.066,-0.054l-0.064,-0.057l-0.061,-0.061l-0.059,-0.063l-0.055,-0.065l-0.052,-0.068l-0.05,-0.07l-0.046,-0.073l-0.042,-0.074l-0.04,-0.077l-0.035,-0.078l-0.032,-0.08l-0.029,-0.081l-0.025,-0.082l-0.021,-0.083l-0.017,-0.084l-0.013,-0.085l-0.01,-0.085l-0.005,-0.086l-0.002,-0.086l0.003,-0.086l0.006,-0.085l0.01,-0.086l0.014,-0.084l0.017,-0.084l0.022,-0.083l0.025,-0.082l0.029,-0.081l0.033,-0.08l0.036,-0.077l0.04,-0.077l0.043,-0.074l0.047,-0.072l0.05,-0.07l0.052,-0.068l0.056,-0.065l0.059,-0.062l0.062,-0.06l0.064,-0.057l0.067,-0.054l0.069,-0.051l0.071,-0.047l0.074,-0.045l0.075,-0.041l0.078,-0.037l0.079,-0.034l0.08,-0.03l0.082,-0.027l0.082,-0.023l0.084,-0.019l0.085,-0.015l0.085,-0.012l0.085,-0.007l0.086,-0.004l9.807,-0.188l0.086,0Z" style="fill:#fff;"/></g></svg>