<?xml version="1.0" encoding="utf-8"?>
<!-- Generator: Adobe Illustrator 20.1.0, SVG Export Plug-In . SVG Version: 6.00 Build 0)  -->
<svg version="1.1" xmlns="http://www.w3.org/2000/svg" xmlns:xlink="http://www.w3.org/1999/xlink" x="0px" y="0px"
	 viewBox="0 0 161.3 379.9" style="enable-background:new 0 0 161.3 379.9;" xml:space="preserve">
<style type="text/css">
	.st0{display:none;}
	.st1{display:inline;}
	.st2{fill:#E9EFB6;stroke:#DEE890;stroke-miterlimit:10;}
	.st3{fill:#7AB7FF;}
	.st4{display:inline;fill:#FF0000;}
	.st5{fill:#FF0000;}
</style>
<g id="Vaggeryd" class="st0">
	<g class="st1">
		<polygon class="st2" points="115.5,0.4 155.5,39.4 160.8,106.6 139.5,110.9 125,135.4 130.5,148.4 115.5,169.9 79.5,207.4 
			75,247.4 98.5,270.4 92,290.4 75,303.4 59.5,360.9 41.5,363.4 36.5,379.4 20.5,379.4 18,352.4 0.5,310.4 18.5,236.9 10,222.9 
			12.9,169.9 28.4,155.6 29.5,145.4 62.8,55.1 87.5,19.4 104.5,19.4 111,4.4 		"/>
		<polygon class="st2" points="72.5,331.9 73.8,333.6 65.6,359.1 64.8,358.1 64.8,350.9 67,344.3 		"/>
		<polygon class="st2" points="101.1,317.6 94,318.6 86.5,327.9 87.6,342.8 90.1,342.8 94.5,335.3 97,331.1 96,325.3 		"/>
		<g>
			<polygon class="st3" points="45.5,297.9 40.5,302.6 36.3,318.1 37.5,322.8 43,308.1 47.5,304.3 46.5,301.6 			"/>
			<polygon class="st3" points="23.8,285.1 25,295 20.9,291 16.3,300.5 16.3,303.3 13.8,307.3 17,308.5 25,305.8 34,297.9 
				35.1,285.8 29.5,284.5 			"/>
			<polygon class="st3" points="61.1,282 70.4,282 79.6,287.8 83.8,285.5 77.8,278.6 67.1,278.6 			"/>
			<polygon class="st3" points="51.5,287 64.8,286.1 57.3,289.7 55,287.8 			"/>
			<polygon class="st3" points="34.8,182.1 41,182.1 44.1,186.1 40.6,185.2 40.6,189.1 			"/>
			<polygon class="st3" points="91,112.3 89.1,108.2 86.6,107.6 84.9,104.3 84.9,97.8 78.8,92.1 77.9,94.3 80.6,98.5 81.5,107.1 
				83.6,107 85.5,111.3 87.6,111.2 			"/>
		</g>
	</g>
	<circle class="st4" cx="37" cy="329.9" r="4.4"/>
</g>
<g id="Tingsryd">
	<g>
		<polygon class="st2" points="115.5,0.4 155.5,39.4 160.8,106.6 139.5,110.9 125,135.4 130.5,148.4 115.5,169.9 79.5,207.4 
			75,247.4 98.5,270.4 92,290.4 75,303.4 59.5,360.9 41.5,363.4 36.5,379.4 20.5,379.4 18,352.4 0.5,310.4 18.5,236.9 10,222.9 
			12.9,169.9 28.4,155.6 29.5,145.4 62.8,55.1 87.5,19.4 104.5,19.4 111,4.4 		"/>
		<polygon class="st2" points="72.5,331.9 73.8,333.6 65.6,359.1 64.8,358.1 64.8,350.9 67,344.3 		"/>
		<polygon class="st2" points="101.1,317.6 94,318.6 86.5,327.9 87.6,342.8 90.1,342.8 94.5,335.3 97,331.1 96,325.3 		"/>
		<g>
			<polygon class="st3" points="45.5,297.9 40.5,302.6 36.3,318.1 37.5,322.8 43,308.1 47.5,304.3 46.5,301.6 			"/>
			<polygon class="st3" points="23.8,285.1 25,295 20.9,291 16.3,300.5 16.3,303.3 13.8,307.3 17,308.5 25,305.8 34,297.9 
				35.1,285.8 29.5,284.5 			"/>
			<polygon class="st3" points="61.1,282 70.4,282 79.6,287.8 83.8,285.5 77.8,278.6 67.1,278.6 			"/>
			<polygon class="st3" points="51.5,287 64.8,286.1 57.3,289.7 55,287.8 			"/>
			<polygon class="st3" points="34.8,182.1 41,182.1 44.1,186.1 40.6,185.2 40.6,189.1 			"/>
			<polygon class="st3" points="91,112.3 89.1,108.2 86.6,107.6 84.9,104.3 84.9,97.8 78.8,92.1 77.9,94.3 80.6,98.5 81.5,107.1 
				83.6,107 85.5,111.3 87.6,111.2 			"/>
		</g>
	</g>
	<circle class="st5" cx="49.3" cy="353.7" r="4.4"/>
</g>
<g id="Ange" class="st0">
	<g class="st1">
		<polygon class="st2" points="115.5,0.4 155.5,39.4 160.8,106.6 139.5,110.9 125,135.4 130.5,148.4 115.5,169.9 79.5,207.4 
			75,247.4 98.5,270.4 92,290.4 75,303.4 59.5,360.9 41.5,363.4 36.5,379.4 20.5,379.4 18,352.4 0.5,310.4 18.5,236.9 10,222.9 
			12.9,169.9 28.4,155.6 29.5,145.4 62.8,55.1 87.5,19.4 104.5,19.4 111,4.4 		"/>
		<polygon class="st2" points="72.5,331.9 73.8,333.6 65.6,359.1 64.8,358.1 64.8,350.9 67,344.3 		"/>
		<polygon class="st2" points="101.1,317.6 94,318.6 86.5,327.9 87.6,342.8 90.1,342.8 94.5,335.3 97,331.1 96,325.3 		"/>
		<g>
			<polygon class="st3" points="45.5,297.9 40.5,302.6 36.3,318.1 37.5,322.8 43,308.1 47.5,304.3 46.5,301.6 			"/>
			<polygon class="st3" points="23.8,285.1 25,295 20.9,291 16.3,300.5 16.3,303.3 13.8,307.3 17,308.5 25,305.8 34,297.9 
				35.1,285.8 29.5,284.5 			"/>
			<polygon class="st3" points="61.1,282 70.4,282 79.6,287.8 83.8,285.5 77.8,278.6 67.1,278.6 			"/>
			<polygon class="st3" points="51.5,287 64.8,286.1 57.3,289.7 55,287.8 			"/>
			<polygon class="st3" points="34.8,182.1 41,182.1 44.1,186.1 40.6,185.2 40.6,189.1 			"/>
			<polygon class="st3" points="91,112.3 89.1,108.2 86.6,107.6 84.9,104.3 84.9,97.8 78.8,92.1 77.9,94.3 80.6,98.5 81.5,107.1 
				83.6,107 85.5,111.3 87.6,111.2 			"/>
		</g>
	</g>
	<circle class="st4" cx="50.1" cy="208" r="4.4"/>
</g>
<g id="Lycksele" class="st0">
	<g class="st1">
		<polygon class="st2" points="115.5,0.4 155.5,39.4 160.8,106.6 139.5,110.9 125,135.4 130.5,148.4 115.5,169.9 79.5,207.4 
			75,247.4 98.5,270.4 92,290.4 75,303.4 59.5,360.9 41.5,363.4 36.5,379.4 20.5,379.4 18,352.4 0.5,310.4 18.5,236.9 10,222.9 
			12.9,169.9 28.4,155.6 29.5,145.4 62.8,55.1 87.5,19.4 104.5,19.4 111,4.4 		"/>
		<polygon class="st2" points="72.5,331.9 73.8,333.6 65.6,359.1 64.8,358.1 64.8,350.9 67,344.3 		"/>
		<polygon class="st2" points="101.1,317.6 94,318.6 86.5,327.9 87.6,342.8 90.1,342.8 94.5,335.3 97,331.1 96,325.3 		"/>
		<g>
			<polygon class="st3" points="45.5,297.9 40.5,302.6 36.3,318.1 37.5,322.8 43,308.1 47.5,304.3 46.5,301.6 			"/>
			<polygon class="st3" points="23.8,285.1 25,295 20.9,291 16.3,300.5 16.3,303.3 13.8,307.3 17,308.5 25,305.8 34,297.9 
				35.1,285.8 29.5,284.5 			"/>
			<polygon class="st3" points="61.1,282 70.4,282 79.6,287.8 83.8,285.5 77.8,278.6 67.1,278.6 			"/>
			<polygon class="st3" points="51.5,287 64.8,286.1 57.3,289.7 55,287.8 			"/>
			<polygon class="st3" points="34.8,182.1 41,182.1 44.1,186.1 40.6,185.2 40.6,189.1 			"/>
			<polygon class="st3" points="91,112.3 89.1,108.2 86.6,107.6 84.9,104.3 84.9,97.8 78.8,92.1 77.9,94.3 80.6,98.5 81.5,107.1 
				83.6,107 85.5,111.3 87.6,111.2 			"/>
		</g>
	</g>
	<circle class="st4" cx="89.9" cy="132.6" r="4.4"/>
</g>
</svg>
